/* XPM */
static char *_6434b6957ea4e94b14b7a7e15fd3f5bWUuOyZdYWfvAveha[] = {
/* columns rows colors chars-per-pixel */
"64 64 252 2 ",
"   c #030101",
".  c #0C0100",
"X  c #0B0903",
"o  c #03040A",
"O  c #0B0909",
"+  c #130100",
"@  c #1B0100",
"#  c #150B02",
"$  c #1B0A00",
"%  c #160A0B",
"&  c #0A1507",
"*  c #18150B",
"=  c #060612",
"-  c #150615",
";  c #0E1216",
":  c #191917",
">  c #220200",
",  c #2C0400",
"<  c #2A0C01",
"1  c #230A03",
"2  c #340900",
"3  c #281707",
"4  c #381805",
"5  c #261916",
"6  c #361E18",
"7  c #3A250A",
"8  c #2C231B",
"9  c #372618",
"0  c #2B2308",
"q  c #1E2322",
"w  c #272625",
"e  c #352C25",
"r  c #383132",
"t  c #0E2012",
"y  c #460E00",
"u  c #441903",
"i  c #581800",
"p  c #47270A",
"a  c #552704",
"s  c #583406",
"d  c #482C18",
"f  c #493417",
"g  c #573717",
"h  c #512F10",
"j  c #672800",
"k  c #63360E",
"l  c #422C21",
"z  c #463628",
"x  c #583A28",
"c  c #493C33",
"v  c #683D25",
"b  c #714917",
"n  c #5B432D",
"m  c #4B473A",
"M  c #564A34",
"N  c #674426",
"B  c #694B37",
"V  c #764D35",
"C  c #6D543A",
"Z  c #79553A",
"A  c #7C5421",
"S  c #59595B",
"D  c #574E50",
"F  c #685348",
"G  c #795746",
"H  c #725550",
"J  c #7C6445",
"K  c #736355",
"L  c #5D5D62",
"P  c #5E6165",
"I  c #746C70",
"U  c #914F14",
"Y  c #8A6110",
"T  c #9E681E",
"R  c #B26B17",
"E  c #885638",
"W  c #87512B",
"Q  c #906C2F",
"!  c #B97932",
"~  c #B37031",
"^  c #D37107",
"/  c #C77217",
"(  c #D47818",
")  c #CE6A03",
"_  c #CB7928",
"`  c #C87934",
"'  c #D17623",
"]  c #835B45",
"[  c #866649",
"{  c #956448",
"}  c #8B6A54",
"|  c #946A56",
" . c #857456",
".. c #9B7759",
"X. c #99794B",
"o. c #A37946",
"O. c #AD7A56",
"+. c #AB7353",
"@. c #8B7463",
"#. c #877A75",
"$. c #987964",
"%. c #A17B65",
"&. c #C17B40",
"*. c #B08A37",
"=. c #DB8415",
"-. c #FC9518",
";. c #F38E11",
":. c #FBA51B",
">. c #C88339",
",. c #D1873B",
"<. c #D48E2C",
"1. c #F99B26",
"2. c #E7952B",
"3. c #FFA52B",
"4. c #FAA834",
"5. c #E4A638",
"6. c #DDA12F",
"7. c #9E8756",
"8. c #A98859",
"9. c #B8945A",
"0. c #B78D52",
"q. c #99856A",
"w. c #84847E",
"e. c #988877",
"r. c #8A866D",
"t. c #A78765",
"y. c #AC936A",
"u. c #B9976A",
"i. c #A48973",
"p. c #AC967B",
"a. c #B49B7C",
"s. c #BB9E7B",
"d. c #B89874",
"f. c #B58C6E",
"g. c #BCA179",
"h. c #BDA064",
"j. c #C68E51",
"k. c #E89E42",
"l. c #D7BF5F",
"z. c #F3AD4C",
"x. c #C19564",
"c. c #D49B64",
"v. c #C4A27B",
"b. c #CAA676",
"n. c #CDAD63",
"m. c #E8AE68",
"M. c #EEC779",
"N. c #D3C56D",
"B. c #8A7F83",
"V. c #8A8888",
"C. c #928786",
"Z. c #97958A",
"A. c #94979A",
"S. c #8D8D91",
"D. c #A99789",
"F. c #B29D85",
"G. c #BCA58A",
"H. c #B4A999",
"J. c #969DA3",
"K. c #A6A6A3",
"L. c #B7B7B7",
"P. c #A3ACB3",
"I. c #9DA399",
"U. c #C7AA86",
"Y. c #D9B487",
"T. c #C9B191",
"R. c #D6B995",
"E. c #E7BE8A",
"W. c #FBBF80",
"Q. c #C4BDB8",
"!. c #C8BAA7",
"~. c #E9C999",
"^. c #F7CB95",
"/. c #FED59C",
"(. c #E8CE8D",
"). c #DCC6A8",
"_. c #C9C5B5",
"`. c #E5CBA9",
"'. c #EBD3A9",
"]. c #FFDBA5",
"[. c #F8D7A8",
"{. c #E9D3B4",
"}. c #F7DAB6",
"|. c #ECCEA8",
" X c #FCE4B9",
".X c #F9EBB2",
"XX c #E6D69A",
"oX c #BDD1CF",
"OX c #C7C8C6",
"+X c #D4CFCA",
"@X c #D6D4CB",
"#X c #CDD5D6",
"$X c #D5D5D5",
"%X c #DCDAD6",
"&X c #D5D6DA",
"*X c #DCDCDC",
"=X c #D6D9DB",
"-X c #C9D3D1",
";X c #F6DEC3",
":X c #E3DDDB",
">X c #E5DAD8",
",X c #DBE2DA",
"<X c #FBE8C5",
"1X c #E2E1DE",
"2X c #EBE6DE",
"3X c #E9E8DC",
"4X c #F9EDD9",
"5X c #DCDEE2",
"6X c #D4DDE6",
"7X c #D6DFF0",
"8X c #E4DDED",
"9X c #DDE1E3",
"0X c #DCE4EB",
"qX c #DBEBEC",
"wX c #D7E6E5",
"eX c #DCEBF4",
"rX c #D7EAEE",
"tX c #E4E4E4",
"yX c #EAE5E4",
"uX c #EBE9E5",
"iX c #E4E6EA",
"pX c #EAE6EA",
"aX c #E4EAEC",
"sX c #EBEBEB",
"dX c #E4EAE4",
"fX c #F5ECE5",
"gX c #F3EDEB",
"hX c #F9EBE7",
"jX c #EDF1ED",
"kX c #E3F7E8",
"lX c #F3F1EE",
"zX c #F9F5EA",
"xX c #E5EBF2",
"cX c #EBEEF2",
"vX c #E8EAF9",
"bX c #F4EFF2",
"nX c #E4F3F4",
"mX c #EDF1F4",
"MX c #E6F2FC",
"NX c #ECF4FC",
"BX c #E9FBFA",
"VX c #F5F5F5",
"CX c #F3F3F3",
"ZX c #FBF5F5",
"AX c #F4FBF4",
"SX c #FCFBF5",
"DX c #F3F5F9",
"FX c #F4FBFE",
"GX c #F9F9F9",
"HX c #FEFEFE",
"JX c #FCFCFC",
"KX c #FBF5FD",
/* pixels */
"JXtXJXsX*XHX&XVXJX&XHX*XsXJXtXFX6XBXwXwXJXOXJX:XpXKX5XKX5XDXpXtXhXhXhXfXgXgXsXsXGX-XHX5XJXiXsXHXtXVXtXsXHX&XHXtXtXHX&XHXCXtXCX*X",
"sXsXsXsXJXtXVXtXsXVXtXJXsXsXsXaXnXnXaXmXpXgXyXuXyXiXcXvXDXsXbXtXuXyXyXuXuXsXsXsXcXHXcXsXtXsXHXpXCXsXsXCXtXJXtXCXVXtXVXtXCXsXsXCX",
"tXCXtXsXHX*XHXtXtXHX*XJXsXtXCXiXmXnXcXCX:XSX:XgXbX5XDXiXmXiXVXCXsXsXsXsXsXcXcXmX5XDXiXCXtXsXJX%XVXsXVXsXtXHX*XVXVX*XHX*XsXVXsXVX",
"CXCXtXCXtXVXsXCXCXsXCXtXCXsXVXVXsXCXyXgXgXyXVXsXCXiXmXxXwXdX,XdXxXxXxXxXaXaXaXaXDX=XCXtXSXsXsXsXtXtXCXsXJXsXCXsXsXCXtXVXsXCXtXtX",
"CXCXtXCXtXVXsXCXCXsXCXtXCXsXVXVXgXbXyXgXgXpXVXcXcXmXmXmXAXGXlXAXFXFXFXFXFXFXFXFXFXcXCXtXVXpXsXJXtXtXCXsXJXsXCXsXsXCXtXVXsXCXtXtX",
"tXCXtXsXHX*XHXtXtXHX*XJXsXtXCXyXzXhXhXZXtXHX5XDXmXcXL.w.K.Z.I.I.A.J.J.J.J.J.J.J.S.HX*XVXsXsXlXyXVXsXVXsX1XHX*XVXVX*XHX*XsXVXsXVX",
"sXsXsXsXJXtXVXtXsXVXtXJXsXsXsXuXhXhXhXbXpXDXxXvXmXsXS   #   .     o o           8 tX1XVXsXCXsX9XCXsXsXCXtXVXtXCXVXtXVXtXCXsXsXCX",
"JXtXJXsX*XHX&XVXJX&XHX*XsXJXtXSX>XzX:XyXHX-XHX0XsXHXc . . + . . . . . . . . . . * +XJX:XcXCXaXHX9XVXtXsXHX&XHXtXtXHX&XHXCXtXCX*X",
"CXsXCXCXtXJXtXCXCXtXJXtXCXCXsXlXfX3XtXsXqXNXNXxXyX>XM 1 < + < @ @ @ @ @ @ @ @ @ 9 _.hXuXcX0XNXxXsXCXsXsXVXtXJXsXsXJXtXVXsXsXsXsX",
"tXsXtXtXHX$XHXtXtXHX$XHXtXtXsX1XSX@XAXFXqXMX&XOX# 6 x } | G H H C Z G Z V Z ] } } 3 . Z.CXxXNX6XmXtXCXCX*XHX&XVXCX$XHX&XVXCXsXVX",
"sXsXsXsXsXCXsXsXsXsXCXsXsXsXsXjX3XkXwXqX6XMXHXQ.. @ ] f.| G F H G Z G E Z Z [ ..[ 4 . C.HXxXNXFXcXsXsXsXCXsXCXsXsXCXsXCXsXsXsXsX",
"VXsXVXVXtXHX&XCXCX&XHXtXVXVXsXVXdXAXqXnXBXqXHXQ.+ > E | ] ] H K G G Z Z Z E { | | 4 + #.HXiXNXvXsXCXsXsXJX&XHXtXsXHX&XJXtXsXCXtX",
"tXsXtXtXJX&XHXsXsXHX&XJXtXtXsXtXCX-XnXqXNXA.r K B Z E { V d 6 6 9 9 7 p u p v ] Z x B K D I vX0XmXtXCXCX*XHX*XVXCX&XHX*XCXCXsXCX",
"sXsXsXsXCXsXCXsXsXCXsXCXsXsXsXsXVXaXFXMXFXI . l %.O.W E v + . +   . . + + @ h ] ] %.i.z . r sXtXcXsXsXsXsXCXsXsXsXsXCXsXsXsXsXsX",
"VXsXVXVX*XHX&XCXCX&XHX*XVXVXsXVX*XKX0X0XFXD % 4 { +.W E N +   o o o X + + @ d Z V } $.x + 5 >XHXsXVXsXtXHX$XHXtXsXHX&XHXtXtXCXtX",
"sXsXsXsXVXtXJXsXsXJXtXVXpXpXsXsXCXpXmXNXKXS + 6 | { W b g d z e c e e z z d x B Z Z $.x . e CX*XsXsXsXCXtXJXtXCXsXtXJXtXCXlXsXCX",
"tXsXsXsXVXtXJXsXsXJXtXVXsXsXsXpXAXtXsXmXcXS O 3 G G 4 > s v.g.g.x.u.v.T.F.T.[ @ 4 V V d + 5 iXNXcXsXsXCXtXJXtXCXsXtXJXtXCXCXsXCX",
"VXsXVXVX*XHX&XCXCX&XHX*XVXVXsXVXdXlXdX9XHXL   8 H G p > s u.u.u.x.j.0.t.t.G.J + @ V } x . w NXNXsXVXsXtXHX$XHXtXsXHX&XHXtXtXCXtX",
"sXsXsXsXCXsXCXsXsXCXsXCXsXsXsXsXuX1XaXcXDXL . * K n u , g u.u.8.9.x.9.x.u.v.Z > 4 B K e   : sXcXcXsXsXsXsXCXsXsXsXsXCXsXsXsXsXsX",
"tXsXtXtXJX&XHXtXsXHX&XJXtXtXsXtXlX,XjXDXcXS O . $ 4 } t.d.|.'. X X].~.^.^.^.b.t.q.l # . . w yX%XbXtXCXCX*XHX*XVXCX&XHX*XCXCXsXCX",
"VXsXVXVX*XHX&XlXCX&XHXtXVXVXsXVXtXVXsX9XHXL   % . $ $.s.U.'.`.'.<X X~.^.^./.Y.d.F.*   o o 5 fXzXsXCXsXsXJX&XHXtXsXHX&XHXtXsXCXtX",
"CXsXsXsXsXCXsXsXsXsXCXsXsXsXsXsXpXsXsXaXKXP   + + + J q.T.<X}.4X X}.[.].^.].Y.t.e.* ; = o % fXSXsXsXsXsXCXsXCXsXsXCXsXCXsXsXsXsX",
"tXsXtXtXHX$XHXsXtXHX$XHXtXtXsXtXVX1XCXDXxXL O   . + p.).U.[ J `.<X}.[.E.o.Q u.R.!.*     o w gX@XlXtXCXCX*XHX&XVXCX$XHX&XVXCXsXVX",
"CXsXCXCXtXJXtXCXCXtXJXtXCXCXsXCXgXSXCXtXHXP   . # . F.<Xa.+ . T.'.~.].~.s @ Z <X{.3 X     : CXcXsXCXsXsXVXtXJXsXsXJXtXVXsXsXsXsX",
"JXtXVXsX*XHX&XJXCX*XJX*XsXCXsXVX+XJXjX9XHXP   . . . F.;Xp.$ . U.[.].~.[.h + J <X).3 . .   : 0XHX5XCXtXCXHX&XHXtXtXHX$XHXsXtXCX*X",
"sXsXsXsXJXtXVXtXtXJX*XJXsXsXsXtXJXpXsXcXmXS O # z 7 G.}.p.+ + R.]./.~.~.p +  .{.{.g 7 3 + w qXMXmXsXsXCXtXVXtXVXVXtXVXtXCXsXsXsX",
"tXCXtXsXHX*XHXtXtXJXtXJXsXsXsXtXHX*XsXDXDXS X 8 D.e.`.}.a.+ + U.^.^.].'.7 .  .<X).s.T.C . w MXeXDXsXVXsX*XHX*XVXVX*XHX*XsXVXsXCX",
"CXCXsXCXtXVXsXsXVXtXJX*XsXCXsXVX&XiXCXcXHXS   c H.F.).|.d.+ @ U..X(.^.'.f +  .}.`.y.a.J # : 0XFXiXtXCXsXVXtXCXsXsXsXtXVXsXCXtXtX",
"CXCXsXCXtXVXsXsXVXtXJXtXsXCXsXVXsXKXDX=XaXS . 8 G.i.R.}.s.> < U.^.E.].~.a + [ }.{.T.F.M . w 9XDXiXtXCXsXVXtXCXsXsXsXtXVXsXCXtXtX",
"tXCXtXsXHX*XHXtXtXJXtXJXsXsXsXtXcXtXaXcXHX$X+XH.9 p t.U.Y.d.s.}..X^.^./.b.b.Y.v.a.d 9 Z.@XOXlX%XVXsXVXsX*XHX*XVXVX*XHX*XsXVXsXCX",
"sXsXsXsXJXtXVXtXtXJX*XJXsXsXsXtXDXcXiXiXKX1XSX!.+ + X.8.v. X X~.~.(.^.^./.].E.8.q.0 . #.lXfXSXfXgXsXsXCXtXVXtXVXVXtXVXtXCXsXsXsX",
"JXtXVXsX*XHX&XJXCXtXJXtXsXCXsXGX&XHXxX0XHX1XSX).@ @ t.U.G.}.<X{. X}.}.[.].].E.s.a.3 . e.SX2X2XSX:XCXtXCXHX&XHXtXtXHX$XHXsXtXCX*X",
"&XCXtXsXHX&XHXtXtXHX&XHXtXsXsXpXKXxXNXFX,X_.7.X.s b J H I C.w.e.q.q.q.r.r.r. .C J N N @.e.D.ZX*XHX*XHXCXtXHX$XJXJX&XHX&XsXJXtXHX",
"CXsXsXCXtXJXtXCXsX*XJXtXsXCXtXCXKXiX0XaXSXM + s 9.8.g .       . + + .     X # + < o.f.B @ 5 :XVXsXtXtXtXVXtXCXsXtXVXtXJXsXsXsXtX",
"VXsXVXsX*XHX*XVXCX*XHXtXVXCXsXmX=XFXNX9XHXD $ 4 ..8.u @ < @ + . + . + + . + @ > , o.7.s $ 3 2XGXtXJXtXsXJX*XJXtXtXHX*XHXsXtXCXtX",
"sXsXCXsXVXsXCXsXsXJXtXCXCXtXVXaXnXqX,X$X:XD % 9 i...k y y 2 , 4 5 1 3 4 y y y y y o.u.f . 9 1X&X$XHXsXJXtXJXtXsXCXsXVXtXCXsXCXsX",
"sXsXCXsXVXsXCXsXsXJXtXCXCXtXVXdXkXBX_.: - - = O + , U ! ` >.~ d.D.D.f.x.j.` ` ` O.2 > 1 +   *   K.CXtXJXtXJXsXVXCXsXVXtXCXsXCXsX",
"VXsXVXsX*XHX*XVXCX*XHXtXVXCXsXjX-XkX@X. % - = - . @ T ,./ _ R j.y.y.x.,./ / ' ` O., @ . . - ;   V.VXtXCXCXtXHXsXtXHX*XJXsXtXCXtX",
"CXsXsXCXtXJXtXCXsX*XJXtXsXCXtXjXAXAX+X. . % O . + < W ! _ <./ ,.*.*.<.<.( ( ` ~ O.u + @ +   o = S.HXsXCXCXtXVXtXtXVXtXSXsXsXsXtX",
"&XCXtXsXHX&XHXtXtXHX&XHXtXsXsXpXZ.m K H.H.D.D.G. .[ b j U R ( 2.5.6.2.2.=.' U j k } [ i.D.C.r o S.CXVXCX$XHX&XgXJX&XHX&XsXJXtXHX",
"sXCXsXsXVXtXJXsXsXJX*XVXsXsXCXSXI . 9 4X<X.X.X~.u.U.a , i _ ^ 1.1.1.1.1./ >.U > 1 a.s.Y. X{.X   V.HXsXtXsXjXsXCXCXtXJXtXVXCXsXCX",
"VXsXCXVX&XHX$XCXVX*XHX&XVXCXtXJXI + z <X.XXX(.M.8.v.p > a ` ) ;.3.-.-.-./ >.A + 3 p.y.~.~.).0   w.VXtXtXHX$XHXtXsXHX$XHXtXtXsXtX",
"sXsXsXsXCXsXCXsXsXVXtXsXsXsXsXZX#.+ d }..XN.l.M.0.g.7 + a j.( 1.-.-.-.-.=.<.b . X #.[ 8.g.y.M m L.sXsXtXsXCXsXsXsXsXCXsXCXCXsXsX",
"tXsXtXtXHX*XHXsXtXHX&XJXsXsXCXZXI . z {.XXn.0.*.8.s.l @ N m.2.1.-.-.-.:.3.z.Q # X   + @ @ 7 3XSXsXsXVXsX&XHX&XVXCX&XHXtXVXVXsXCX",
"CXsXCXCX*XHX&XCXCX*XHX*XVXsXtXKXV.  9  XXXn.0.u.s.G.l + a c.k.1.4.:.-.;.-.k.Q     X . + 1 5 8XHXiXtXsXsXHXtXJXtXsXHX&XJXtXsXsXtX",
"sXsXsXsXsXCXsXsXsXsXCXsXCXsXsXGXI o m ).|.b.8.a.D.D.z @ s m.z.2.<.5.3.-.3.z.Q . & t X 8 . r vXvXvXtXsXsXCXsXsXsXsXCXtXlXsXsXsXsX",
"tXCXtXtXHX&XHXsXtXHX$XHXsXsXsXmXBXrX_.7 < 4 4 + % 6 @ > a >.R j 2 b / ^ -.4.T + * oX-XVX2XtXvX7XFXCXsXsX&XHX$XJXCX$XHX*XJXVXsXVX",
"CXsXCXCXtXJX*XsXsXtXJXtXVXsXtXNXeXFX@X. < + . O   % @ > a 0.! a @ N ` ) -.1.T + & nXFXtXgXsXDXxX*XJXtXsXHX*XVXtXsXJX*XVXsXsXsXtX",
"CXsXCXCXtXJXtXsXsX*XJXtXCXCXsXcX5XHX$X.     O     . + @ p f.O.4 @ k ` ^ -.4.Y # & 0XCX>XfXJXwXFXaXsXsXsXVXtXJXsXsXJX*XVXsXsXsXtX",
"tXCXtXtXHX&XHXsXtXHX&XHXpXtXsXtXHXtX$XK.A.L.I K.K.H.9 + p ..t.h @ s _ ^ -.4.Y . : 0XpXJX>X@XBXwXGXsXVXVX*XHX&XCXCX$XHX*XJXVXsXVX",
"sXsXsXsXsXCXsXsXsXtXCXsXlXsXsXsXtXlXsXVXHXcXHXCX1XSXz + n i.f.p @ k ,.( 1.z.T . : 6XsXyXzXJXnXnXsXsXsXsXCXsXCXsXsXCXtXsXsXsXsXsX",
"CXsXCXCX*XHX&XCXsX&XHX*XVXCXsXCX$XSXVXsXsX&XHXtXVXJXm . z p.p.4 + h j./ <.z.Q . & 0XHXyX2XgX#XFXtXsXtXtXJX&XHXsXsXHX&XJXtXsXsXtX",
"tXCXsXtXHX&XHXsXsXHX*XHXtXsXCXtXHX*XsXCX$XHX&X9XL.L.m + 9 @.@.9 . x c.,.k.m.Q   q P.L.yXhX>XHXnXCXsXVXVXtXHX&XCXCX&XHXtXVXVXsXCX",
"sXsXsXsXCXsXCXsXsXCXsXCXsXsXsXsXJX%XsXsXCXHXiX-Xo       . 3 $ . + F ^.^.M./.7.    ;   B.ZXgXiX6XmXsXsXsXsXCXsXsXsXsXCXsXCXCXsXsX",
"VXsXCXVX&XHX$XCXCX$XHX&XCXCXsXVX*XlXCX*XHX$XHXL.      %     . .   F }./.^.].q.  o o o I JXSX-XHXtXsXtXtXHX$XHXtXsXHX$XHXtXtXsXtX",
"sXsXsXsXVXtXJXsXsXHXtXVXsXsXCXsXsXZXsXtXCXiXmXOX  ;   O O %   X   F ;X}.|.}.e.  o = o S.ZX:XKXxXCXsXCXCXtXJXtXlXCXtXJXtXVXCXsXCX",
"&XCXtXsXHX&XHXtXtXJXtXJXsXtXsX1XJXyXSXsXtXHX&XmX-XOXiXL.tXOX+Xr   * d f p n *   = &XL.ZX>XyXHX=XKXtXJXsX*XHX&XVXJX&XHX&XsXJXtXHX",
"CXsXsXCXtXJXtXCXVXtXJXtXsXCXsXCXsXgXsXyXVXtXVXaXGXHXcXKXsXmXHXw o O # . + + X   : 9XHXyXHXCX9XvXiXsXsXsXJXtXVXtXtXVXtXJXsXsXsXtX",
"VXsXVXsX*XHX*XVXCXtXJXtXCXCXsXVXyXCXtXpXVX&XHXsXCXJXtXGXtXVXKXr   O     .   O   q OXJX$XVXCXtXHXtXCXtXsXJX*XHXtXtXHX*XHXsXtXCXtX",
"sXsXCXsXVXsXCXsXtXJXtXHXsXsXCXtXsXCXsXVXtXCXsXCXsXtXCX5XCXcX*XK.w.V.V.S.A.V.S.V.S.tXtXlX1XaXGXtXCXCXsXCXtXVXsXCXCXsXVXtXCXsXCXsX",
"sXsXCXsXVXsXCXsXtXVXtXHXsXsXCXtXsXCXsXVXtXlXpXCXlX,XVXsXVXsXtXVXJXlXCXKXNXHXDXHXgXJX2XSXpXsXCXiXCXCXsXCXtXVXsXCXCXsXVXtXCXsXCXsX",
"VXsXVXsX*XHX*XVXCXtXJXtXCXCXsXVXtXCXtXsXSX%XJXpXsXtX1XHX*XsXVXtXzXyXsXxX0XFX5XCXuX2XuX%XSXjX*XHXtXCXtXsXJX*XHXtXtXHX*XJXsXtXCXtX",
"CXsXsXCXtXJXtXCXCXtXJXtXsXsXsXCXsXsXsXtXVX1XZXyXlXsXuXSX1XlXVX2X2XuXmXNXMXNXxXtXuXzXfX2XlXjX*XCXtXsXsXsXJXtXVXtXtXVXtXSXsXsXsXtX",
"&XCXtXsXHX&XHXtXtXJX*XJXsXtXsXtXKXtXSXsX1XHX%XgXlX:XJX+XHXVX%XJX3XfXsXqXMX7XKXsX2XSXOXSX@XjXHX&XJXtXJXsX*XHX&XVXJX&XHX&XsXJXtXHX"
};
