/* XPM */
static char *_8d04b53d602402bcb09a06a56732acas3FBh2NZRz6s8oBA[] = {
/* columns rows colors chars-per-pixel */
"64 64 245 2 ",
"   c #030200",
".  c #0A0401",
"X  c #0C0C03",
"o  c #0B0C0B",
"O  c #040808",
"+  c #120B02",
"@  c #1A0C00",
"#  c #130702",
"$  c #0B1108",
"%  c #1B1203",
"&  c #14140B",
"*  c #1B150C",
"=  c #1C1A0D",
"-  c #141407",
";  c #0B0D12",
":  c #0D1517",
">  c #131514",
",  c #151A14",
"<  c #1B1B15",
"1  c #141C1B",
"2  c #1A1C1C",
"3  c #181618",
"4  c #221503",
"5  c #271A0A",
"6  c #241D13",
"7  c #211E19",
"8  c #270E00",
"9  c #1B221D",
"0  c #19211A",
"q  c #1D200F",
"w  c #2A210C",
"e  c #23231B",
"r  c #2C241B",
"t  c #2C2415",
"y  c #352917",
"u  c #352910",
"i  c #1B1E22",
"p  c #141C22",
"a  c #1D2322",
"s  c #1B2527",
"d  c #222425",
"f  c #25252A",
"g  c #252A2B",
"h  c #2B2C2C",
"j  c #292B26",
"k  c #342C23",
"l  c #2B302F",
"z  c #393224",
"x  c #3A3529",
"c  c #2A2D33",
"v  c #2D3234",
"b  c #2B3539",
"n  c #313233",
"m  c #383939",
"M  c #221D23",
"N  c #43321F",
"B  c #432D18",
"V  c #463929",
"C  c #453C33",
"Z  c #3C403F",
"A  c #4C4737",
"S  c #574B38",
"D  c #5B533C",
"F  c #52462D",
"G  c #6B542D",
"H  c #63543D",
"J  c #6B5B3C",
"K  c #695737",
"L  c #735B33",
"P  c #735D3D",
"I  c #785F37",
"U  c #675133",
"Y  c #7A633A",
"T  c #76613A",
"R  c #6E613E",
"E  c #373C42",
"W  c #3E4241",
"Q  c #464648",
"!  c #564D43",
"~  c #5C5444",
"^  c #5B5648",
"/  c #535254",
"(  c #645A43",
")  c #6B5C43",
"_  c #635B4A",
"`  c #6C5D4B",
"'  c #655544",
"]  c #715F48",
"[  c #635E53",
"{  c #6D624D",
"}  c #6B6345",
"|  c #736244",
" . c #7A6443",
".. c #74634C",
"X. c #79694B",
"o. c #6C6554",
"O. c #6D6856",
"+. c #7B6B54",
"@. c #766A58",
"#. c #7B7259",
"$. c #736C63",
"%. c #787468",
"&. c #6A7476",
"*. c #7D7E7D",
"=. c #757776",
"-. c #666A6A",
";. c #5F6066",
":. c #826B48",
">. c #89754D",
",. c #836D53",
"<. c #86755A",
"1. c #877B67",
"2. c #887F74",
"3. c #927D6A",
"4. c #7A817E",
"5. c #9A845C",
"6. c #8D866A",
"7. c #978668",
"8. c #8C8573",
"9. c #898879",
"0. c #938B74",
"q. c #9C8C72",
"w. c #938B7A",
"e. c #968877",
"r. c #9C9278",
"t. c #A48D67",
"y. c #A5916C",
"u. c #AB946C",
"i. c #AA9369",
"p. c #A78D74",
"a. c #A49273",
"s. c #AA9473",
"d. c #AB9A75",
"f. c #A4957B",
"g. c #AD947B",
"h. c #AA9B7C",
"j. c #A59B7A",
"k. c #B29B74",
"l. c #B39B7A",
"z. c #B0996F",
"x. c #AFA27D",
"c. c #A1885F",
"v. c #777D84",
"b. c #787F91",
"n. c #7D8384",
"m. c #7D848A",
"M. c #798789",
"N. c #77868E",
"B. c #818484",
"V. c #82858B",
"C. c #83898B",
"Z. c #8A8C8B",
"A. c #898B84",
"S. c #8D918D",
"D. c #999585",
"F. c #888C93",
"G. c #8B9196",
"H. c #949897",
"J. c #988B82",
"K. c #AC9D83",
"L. c #A89987",
"P. c #B19B85",
"I. c #A89D93",
"U. c #ADA386",
"Y. c #B3A485",
"T. c #A8A59A",
"R. c #989AA7",
"E. c #9BA6A8",
"W. c #9AAFB5",
"Q. c #A4A5A4",
"!. c #A2AAA6",
"~. c #A4A5AB",
"^. c #A4ABAC",
"/. c #AAADAD",
"(. c #ABAAA5",
"). c #AAB1AE",
"_. c #A4ADB1",
"`. c #AAADB1",
"'. c #A6AAB6",
"]. c #ACB1B3",
"[. c #A9B7B9",
"{. c #B5B7B9",
"}. c #B2B2B1",
"|. c #99A29F",
" X c #C3AF8C",
".X c #C2B9AF",
"XX c #BEC0BF",
"oX c #CFCAB8",
"OX c #B4B8C4",
"+X c #A8BCC0",
"@X c #B8CDD0",
"#X c #CBCBC8",
"$X c #D6CFC8",
"%X c #D8D4C8",
"&X c #D9D9D7",
"*X c #CCD0D1",
"=X c #E3D7C9",
"-X c #E4DDD7",
";X c #DDE5DE",
":X c #E8E1CE",
">X c #E8E4D9",
",X c #F5E9DC",
"<X c #FCF4DF",
"1X c #DCDFE4",
"2X c #E4DEE2",
"3X c #DDE5E4",
"4X c #E3E4E4",
"5X c #EAE5E3",
"6X c #EAECE6",
"7X c #E5ECEB",
"8X c #EAECEC",
"9X c #E5E8E7",
"0X c #F4ECE3",
"qX c #F4EBE9",
"wX c #EBF2EB",
"eX c #FDFBED",
"rX c #F8F4E9",
"tX c #ECEDF1",
"yX c #E5EDF4",
"uX c #EDF2F2",
"iX c #ECF5F8",
"pX c #F3F3F3",
"aX c #FBF5F5",
"sX c #FEFBF4",
"dX c #F3F6FA",
"fX c #FAF6F9",
"gX c #F6FCFD",
"hX c #FCFAFB",
"jX c #FAFCFB",
"kX c #FEFEFA",
"lX c #FAFAFD",
"zX c #FCFAFD",
"xX c #FDFBFE",
"cX c #FBFDFC",
"vX c #FBFFFF",
"bX c #F8FEFD",
"nX c #FEFCFF",
"mX c #FCFFFF",
"MX c #FFFEFF",
"NX c #FEFFFF",
"BX c white",
"VX c #FDFDFE",
"CX c #FDFEFD",
"ZX c #F3FAF4",
"AX c #F9EFF0",
/* pixels */
"NXjXNX9Xg Q.n.> 8XcXNXcXNXNXjXNX7X1 /.n.2 9XNXzXNXNXNXlXNX9Xa ^.C.1 8XNXNXNXNXNXzXNX4Xj ~.n.1 tXNXhXNXNXcXcXcX7X0 E.4.d 4XNXNXNX",
"NXjXNX9Xf Q.B.d 8XcXNXcXNXNXjXNX7X1 /.n.2 9XNXzXNXNXNXlXNX9Xa ^.C.1 7XcXNXNXNXNXNXNX9Xh ~.n.1 7XNXhXNXNXcXcXcX7Xs ^.n.f 9XNXNXNX",
"NXjXNX9Xd !.Z.h 8XcXNXcXNXNXjXNX7X1 /.n.2 9XNXzXNXNXNXlXNX9Xa ^.n.1 9XNXNXNXNXNXNXNX9Xh /.n.1 9XNXhXNXNXcXcXcX7Xs ^.*.f 4XNXzXhX",
"NXjXNX9Xh /.S.g 8XcXNXcXNXNXjXNX7X1 /.n.2 8XNXzXNXNXNXlXNX9Xa ^.n.1 9XNXNXNXNXNXzXNX9Xh /.n.1 9XNXhXNXNXcXcXcX7Xa ^.B.l 9XNXfXzX",
"NXjXNX9Xn }.Z.2 8XcXNXcXNXNXjXNX7X1 /.n.2 9XNXzXNXNXNXlXNX9Xa ^.n.1 9XNXNXNXzXNXdXNX4Xh /.n.1 9XNXhXNXNXcXcXcX7Xa ).H.Z 8XNXjXNX",
"NXjXNX9Xn }.Z.> 8XcXNXcXNXNXjXNX7X1 /.n.2 9XNXzXNXNXNXlXNX9Xa ^.n.1 7XNXNXNXlXNXpXzX1Xj ~.n.1 7XNXhXNXNXcXcXcX7X0 ^.S.W pXNXaXNX",
"NXjXNX9Xl /.B.> 8XcXNXcXNXNXjXNX7X1 /.n.2 9XNXzXNXNXNXlXNX9Xa ^.n.1 8XNXNXNXfXlXfXNX4Xf ~.n.1 8XNXhXNXNXcXcXcX7Xa E.B.m 8XNXpXNX",
"NXjXNX4Xj Q.B.2 8XcXNXcXNXNXjXNX7X1 /.n.2 9XNXzXNXNXNXlXNX9Xa ^.m.1 8XNXNXNXfXfXzXNX4Xj ~.n.1 8XNXhXNXNXcXcXcX7Xg !.4.v 8XNXjXNX",
"cXNXNX9X9 /.B.2 8XNXNXjXNXNXjXNX8X1 /.n.2 8XNXNXNXNXNXlXNX9Xa ^.n.1 7XNXNXNXzXNXNXzXtXi /.B.1 9XNXhXNXNXcXcXcX7Xa ^.B.2 8XNXzXNX",
"cXNXNX9X9 /.B.2 8XNXNXjXNXNXjXNX8X1 /.n.2 8XNXzXNXNXNXlXNX9Xa ^.n.1 7XNXNXNXzXNXNXzXtXi /.B.1 9XNXhXNXNXcXcXbX7Xa ^.B.2 8XNXzXNX",
"cXNXNX9Xa /.B.2 8XNXNXjXNXNXjXNX8X1 /.n.2 8XNXNXNXNXNXlXNX9Xa ^.n.1 7XNXNXNXzXNXNXzXtXi /.B.1 9XNXhXNXNXcXcXcX7Xa ^.B.2 8XNXzXNX",
"cXNXNX9Xa /.B.2 8XNXNXjXNXNXjXNX8X1 /.n.2 8XNXzXNXNXNXlXNX9Xa ^.m.1 7XNXNXNXzXNXNXzXtXi /.B.1 9XNXhXNXNXcXcXcX7Xa ^.B.2 8XNXzXNX",
"cXNXNX9Xa /.B.2 8XNXNXjXNXNXjXNX8X1 /.n.2 8XNXzXNXNXNXcXNX7Xd ^.n.1 7XNXNXNXzXNXNXzXtXi /.B.1 9XNXhXNXNXcXcXcX7Xa ^.B.2 8XNXzXNX",
"cXNXNX9Xa /.B.2 8XNXNXjXNXNXjXNX8X1 /.n.2 8XNXzXNXNXNXcXNX7Xa ^.n.1 7XNXNXNXzXNXNXzXtXi /.B.1 9XNXhXNXNXcXcXcX7Xa ^.B.2 8XNXzXNX",
"cXNXNX9Xa /.B.2 8XNXNXjXNXNXjXNX8X1 /.n.2 8XNXNXNXNXNXcXNX9Xa ^.n.1 7XNXNXNXzXNXNXzXtXi /.B.1 9XNXhXNXNXcXcXcX7Xa ^.B.2 8XNXNXNX",
"cXNXcX9Xa /.B.2 8XNXNXjXNXNXjXNX8X1 `.n.i 8XNXNXNXNXNXhXNX8Xs _.n.1 9XNXNXNXzXNXNXlXtXi ^.V.1 9XNXjXNXNXjXcXbX7Xa !.B.2 8XNXNXNX",
"bXbXcXuX2 ).B.< aXpXkXNXNXNXjXNX8X1 ^.C.: 3XcXgXzXNXqXkXNX4Xc E.=.l wXkXkXkXjXNXcXcXyXs _.V.o wXNXjXNXkXjXjXuXZX9 !.4.0 pXNXNXNX",
"bXbXcXuX2 /.B.2 4XkXNXNXNXNXpXjX&X2 {.&.c yXiXNXNXkXkX-XqX*Xo {.C.$ &X6XsXaXNXlXbXbXyXp ].C.3 8XjXpXkXkXjXjXbX;X9 !.4.2 8XNXNXNX",
"cXcXcX9Xa /.B.2 4XNXNXdXNXNXNXNXqXj /.=.p yXgXNX6XkXsXAX5Xn > ].H.  j -X-XkX5XNXdXcX1Xs `.B.d &XNXNXNXNXZXjXcX;X9 !.n.2 9XNXzXNX",
"cXNXNX4Xj ~.B.2 8XNXdXuXNXNXNXNX>X+ *.*.o dXNX8XkXsX-X% r =.i R.-.> =.k z %XsXsXNXNX7Xv =.$.6 -XkXNXNXNXuXdXcX7Xa !.n.2 9XNXhXNX",
"NXNXNX1Xn ~.v.i 9XNXgXNXNXgXcXpX0X+ y < . >XNXkXeX%XV 2.I.B.d ].S.j 9.w.2.z >XkXNX9X&X7   k @ ,XaXNXlXNXNXbXcX4Xa ~.B.2 9XNXhXNX",
"NXNXNX1Xm /.B.f 9XNXcXNXcXdXNXkX% q.@.D.A.j >XsXrXV @.I.I.2.2 ].=.X A.T.D.e.4 0XkX-XQ 9.I.<.7.5 hXNXdXzXNXNXNX4Xa ~.C.a 8XNXhXNX",
"hXNXNX2XQ }.C.c tXNXgXcXdXNXNX{.V 7.U.8.T.$.! >X%X% .Xe.D.2.j H.*.x 8.e.I.L.t =XeX^ $.%.@.3.,.B .XNXNXpXNXlXNX8Xa ^.Z.d uXNXhXNX",
"hXNXNX4X/ {.F.v yXNXdXNXNXNX4Xx <.h.+.@.o.O.w %Xy e.3.L.w.* . ).S.  - J.L.3.+.y >Xx w.L.e.7. XF C 2XNXNXNXgXNX7Xi _.F.j pXNXjXNX",
"NXNXzXqXf {.C.i *XNXiXNXNXNX>Xt f.7.r.1.w.~ ~ %Xw 0.+.@ * ! < !.A.- A % 4 +.H y $X! J.@.+.3.U  .y %XNXzXzXdXNX1Xc `.C.a tXNXjXNX",
"NXNXzX8Xd }.V.i dX7XNXpXkXrX>X5 X.7.| #.8.y =X=X4 0.<.S _   X !.9.  % A { ` +.4 ,X$X6 ~ e.q.s.J 4 >XqXkXhXNXtXtXf `.C.i tXNXjXNX",
"NXNXzX8Xd ].V.1 tXNX6XsXeX%XV 6.K.f.r.8.8.6 oXy @ L.<.u 5 o.X }.H.. A x 4 F ` # 6 -X6 2.1...,...1.S $XeXkX5XNX1Xf _.V.i tXNXNXNX",
"NXNXNX8Xa `.n.1 8XwXkXsX:Xu 1.j.q...@._ ^ k %X* 1.4 f.L.2.[ + T.%.- O.o.@.} @ ~ * -X* $.8.e...| r.0.y >XsXkXpXtXd ~.m.p tXNXNXNX",
"NXNXNX8Xi ^.n.1 4XkX0X:XN 6.h.a.X.0.w.D.A j #XC S 4 f.r.L.^ k (.9.q S 8.#.` 5 S x %Xm [ %.@.} ) q.0.1.x ,XrXsX8Xa ~.m.p tXNXcXNX",
"NXNXNX7Xa _.n.1 ZXsX$Xt 6.Y.d.,.H %   < < oXkX%Xt . ' L.I.$.  (.%.X O.8.' _ . * $XNX*Xj       #.#.X.6.1.z >XpXjXd ~.m.p tXNXcXNX",
"NXNXcXyXa _.n.1 9X&XA 6.q.y.u.U S = 9.$.> 8XpXkX-Xt ' 1.@.! x T.9.q ~ A @.A t >XkX3XdX9 -.S.- D F >.} X.#.x %X4Xd `.V.i tXNXcXNX",
"jXNXcXyXa ^.n.0 #Xk 1.K.h.s.T X.+ . =.Z.1 3XkXrX0X0X5 _ 1.! < (.A.X ~ %.D x >XsXkXkX3X1 C.4.+ . | K | } { S k #Xd ^.V.i tXNXcXNX",
"kXwXcX3Xs ^.4.& r #.K.Y.7.,.( ( - . OXv.a wXwXsXsXkX=X% O.[ ; {.m.> ' ' 5 >XZXsXeXeX;Xs E.M.$ + ~ ( #.X.) } ~ = & H.G.a 3XcXjXkX",
"kXjXwX3Xg H.A.X 8.L.f.<.1.' _ z oX9 '.b.O 7XsXeXkXAX0Xz A [ O OXb.1 @.V V >XkXwXeXeX6X: W.M.$ oXV D F ..H ..@.S X {.4.: 7XZXkXkX",
"pXkXcX&Xb E.H.. 1.U.K.+.( ( u :X0X, _.F.: #XeX%X5XqXsX>Xw ^ c R.N.: S N =XsX>XsX:XrX%X, +XM.$ eX:Xu +.+.| #.@.S & {.&.c bXcXwXkX",
"kXZXuX*X1 ].-.j L.f.J ..K 4 oXrX%X< ~.R.: ,   k * r ,X=X5 A f OXG.f V 8 ,X%Xm   w + X $ @X&.k oX<XoX# S X.S X.` e H.G.O &XNXhXkX",
"kXwX8Xv O E.!.  1.} ,.K u <.y w w & OX-., 9.8.8.1.2.5 V # D o '.v.o ' 8 y y A _ H } ~ > E.M.6 % w u J @ K <.H _ - XX=.: j 4XpXNX",
"NX9Xn =.: ^.*.* ~ <.U 8 a.h.<.j.O.= `.F.9 9.r.r.L.e.L.S X.{   #XG.o ' P ) S O.D.r.H D 9 [.n.  0.0.6.q.X.# U <.~ = !.G.O m n NXaX",
"NX9X; v.c {.Z.- o.) 8 <.Y.f.Y.6.O.< ~.F.$ D.U.q.L.P.p.P.<.o.3 ~.-.7 ] U ,.q.D.L.Y.q.@.0 _.n.X r.6.U.J K P 5 H ' 6 Q.B.v ;.  8XzX",
"NX2Xn Q p `.H.e V w U :.a.7.) +.S e ~.G.X w.j.U.P.L.g.s.Y.6.* ].H.. ..y.p.f.Y.0.7.x.o.j _.n.t S @.( X.| J U 5 S * {.v.f Q Q 2XzX",
"aXfXi / f `.H.. 6 F ]  .| ) ( o.^ X ~.C.& D.Y.a.P.g.p.s.x.0.7 /.V.& 3.z.s.a.f.f.x.x.#.X [.M.X ( o.} ( ) ) ] F w - Q.H.Q / M aXzX",
"NX8Xc m E {.=.* S { X.....{ o.#.^ < ~.H.X { U. XP.g.g.s.d.6.< /.n.& 7.l.l.s.f.f.k.y.D $ [.&.* o.O.o.o.o...+.{ A 7 Q.H.m / ;.5XhX",
"hXaX*Xm b ^.F.  ^ ` ' D H ( ~ ^ A d R.V.X o.h.q.P.g.g.s.d.6.< ].n.- 7.k.k.a.j.f.u. X} = [.M.< z ~ ~ _ ( D ) { ~ < Q.G.v =.*XqXNX",
"NXfXNX*X: E.v.> + 5 5 4 5 5 * & < . '.F.X { j. Xg.g.s.y.j.6.< ].n.- 3.u.y.y.h.h.5.i.D X E.M.X r = & = % @ 4 6 - > E.C.b {.NXNXNX",
"NXuXdXcXp [.V.> &X,X,X,X0X0X5X8X*Xa R.V.e _ K 7.g.p.p.y.j.0., ^.M.- 7.k.d.s.h.j.s.:.D e [.F.e .XwX6X0X,X>X0X0X&X2 _.m.c 9XNXhXaX",
"pXNXcX*Xb _.G.; 8XkXsXsXsXsXNXcX3X1 OXF.& D } x.g.g.g.d.x.0., _.M.& 6.k.l.f.r.7. .G D < E.N.> pXNXcXkXsXsXsXkX9Xg `.v.p dXpXNXaX",
"kXNXtXbXs E.;.v 8XkXkXsXkXkXlXcXwXa [.m.X ~ } J 7.p.g.d.j.6., ].M.$ +.7.7.5.<.X.G :.D , W.N.1 9XcXbXNXkXsXkXkX9Xa _.m.: iXgXNXkX",
"NX8XcXiXO OXC.: 9XaXkXkXNXNXgXbX7X1 _.G.  6 D R | <.7.7.7.#.o _.M.  H  . . .| K P J -   +XN., 8XcXcXNXNXsXkXkX9Xp E.C.: yXNXaXaX",
"cXNXcX7Xa /.n.1 8XkXNXjXNXNXlXNX3Xg E.m.o . ~ .. .P Y  .J _ e ^.B.& { J L T Y P ..'   ; _.n.a 9XNXlXNXNXkXNXjX7Xa ^.n.2 8XNXhXNX",
"cXNXNX9Xa /.B.2 8XNXNXjXNXNXjXNX3Xa E.C.O o ! } K G Y  .) ~ < Q.Z.X _ | T L L P ` ! . ; `.*., 4XNXhXNXNXcXcXcX7Xa !.n.2 8XNXhXNX",
"cXNXNX9Xa /.B.2 8XNXNXjXNXNXjXNX7X1 E.F.; ; ^ ..J L Y  .) ~ < ~.Z.X ~ | Y G L  ...^ o ; {.n.; 6XNXhXNXNXcXcXcX7Xa !.n.2 8XNXhXNX",
"cXNXNX9Xa /.B.2 8XNXNXjXNXNXjXNX7Xa _.C.;   o...X.Y L L ) _ 2 `.Z.X ( | T L L  ...o.  > ].C., 6XNXhXNXNXcXcXcX7Xa !.n.2 8XNXhXNX",
"cXNXNX9Xa /.B.2 8XNXNXjXNXNXjXNX3Xa ^.v.;   o.) | T G L X.O.2 /.B.& o.| L L Y P ` o.  > E.m.2 >XNXhXNXNXcXcXcX7Xa !.n.2 8XNXhXNX",
"NXNXNX9Xa /.B.2 8XNXNXjXNXNXjXNX3Xg _.v.: n ^ ( K Y Y >.q.1.2 ~.*.< %.X.T Y Y P ` ^ h 3 E.C.2 4XNXhXNXNXcXcXcX7Xa !.n.2 8XNXhXNX",
"NXNXNX9X9 /.B.2 8XNXNXjXNXNXjXNXwXa _.m.p H.x H J >.5.t.U.8.2 /.*.7 8.7.>.Y L P ' x H.a ^.C.> wXNXhXNXNXcXcXcX7Xa !.n.2 8XNXhXNX",
"NXNXNX9X9 /.B.2 8XNXNXjXNXNXjXNXuX: E.C.p 8X* S  .5.i.d.U.1.> ~.*.< w.K.5.Y L  .D * 5Xa ].n.  wXNXhXNXNXcXcXcX7Xa !.n.2 8XNXhXNX",
"NXNXNX4Xh ~.n.2 8XNXNXjXNXNXjXNX7X1 _.n.i &X6 H <.5.u.d.K.8.> ].*.* w.h.y.>.G  .H y $Xf ^.4.2 4XNXjXNXNXcXcXcX7Xg E.B.2 4XjXNXhX",
"cXcXNX4Xn /.B.a 8XNXNXjXNXNXjXNX7X1 _.n.i &X6 ) a.i.k.d.K.8.< /.B.& 0.h.k.5.I :.H k $Xf ^.n.0 9XNXjXNXNXcXcXcX7Xa E.Z.j 9XzXNXNX",
"NXNXNX9Xm {.S.g 8XNXNXjXNXNXjXNX7X1 _.v.i &Xr +.Y.k.u.y.K.w.2 ~.B.& e.h.k.t.:. .@.C -Xv ^.n.2 4XNXjXNXNXNXcXcX7X2 !.H.v uXNXNXNX",
"NXNXNX8XQ XXS.j 8XNXNXjXNXNXjXNX7X1 _.n.a &Xk 1.l.u.t.t.K.w.2 ^.B.- 0.h.u.c.:. .1.A 5Xn ^.n., ;XNXjXNXNXNXcXcX7Xa ^.S.g 8XNXNXzX",
"NXjXcX9Xm {.A.2 8XNXNXjXNXNXjXNX7X1 _.m.s &Xz 6.s.i.i.y.K.w.2 /.B.- w.h.t.t.>. .` x &Xf ~.v.2 4XNXjXNXNXNXcXcX7Xv ).C.a 9XNXNXzX",
"NXjXNX4Xn /.B.2 8XNXNXjXNXNXjXNX7X1 _.m.s &Xz 7.s.u.z.s.K.w.< /.*.X w.K.t.i.5.:.) z &Xf ~.v.2 4XNXjXNXNXNXcXcX7Xm ).B.2 9XNXNXNX",
"NXNXNX4Xl /.B.2 8XNXNXjXNXNXjXNX7X: _.m.i &Xk 6.h.u.z.s.K.w.2 ^.B.X w.h.i.k.t.:.' x &Xh ^.n.2 4XNXjXNXNXNXcXcX7Xg ^.B.0 9XNXNXNX",
"jXcXNX3Xg Q.*.2 8XNXNXjXNXNXjXNX7X: _.m.i *Xr 6.h.i.i.i.K.w.2 ^.Z.X 0.j.t.l.t. .S r $Xf ^.n.0 9XNXjXNXNXNXcXcX7X2 |.B.a 9XNXNXjX"
};
