/* XPM */
static char *e368f4d06d4e40c0ccc4dff3afd7597bL0ZA6Xv3o2zjEcB1[] = {
/* columns rows colors chars-per-pixel */
"64 64 228 2 ",
"   c #020102",
".  c #090200",
"X  c #0E0907",
"o  c #00020B",
"O  c #06090F",
"+  c #0B0B0C",
"@  c #000D06",
"#  c #120E0C",
"$  c #16110C",
"%  c #000313",
"&  c #040A14",
"*  c #0B0D12",
"=  c #00031A",
"-  c #030C1C",
";  c #080E1A",
":  c #0C131B",
">  c #0A111B",
",  c #131313",
"<  c #13151D",
"1  c #1B1B1B",
"2  c #191717",
"3  c #211C16",
"4  c #1B351D",
"5  c #17201F",
"6  c #2B291D",
"7  c #000B25",
"8  c #000D2A",
"9  c #000220",
"0  c #041123",
"q  c #04142C",
"w  c #0E1B2E",
"e  c #0C1627",
"r  c #141923",
"t  c #181D24",
"y  c #121C2C",
"u  c #171C27",
"i  c #031635",
"p  c #0B1C35",
"a  c #051A3B",
"s  c #111F35",
"d  c #1A222D",
"f  c #0E213F",
"g  c #152134",
"h  c #1A2334",
"j  c #14233C",
"k  c #1C293C",
"l  c #1C2D37",
"z  c #173128",
"x  c #242424",
"c  c #2B2B2B",
"v  c #232828",
"b  c #232D3C",
"n  c #292C32",
"m  c #2B313B",
"M  c #333333",
"N  c #3A3734",
"B  c #3C3935",
"V  c #3C3C3C",
"C  c #313439",
"Z  c #35302B",
"A  c #423B37",
"S  c #43413E",
"D  c #4B4135",
"F  c #50493F",
"G  c #031A44",
"H  c #0D2245",
"J  c #1C2C45",
"K  c #152A49",
"L  c #1A314A",
"P  c #1A2F51",
"I  c #172E50",
"U  c #1E3353",
"Y  c #163051",
"T  c #243346",
"R  c #24344C",
"E  c #2A3649",
"W  c #2D3848",
"Q  c #353B44",
"!  c #333A4A",
"~  c #393B43",
"^  c #243552",
"/  c #253955",
"(  c #223759",
")  c #23395A",
"_  c #2B3D5A",
"`  c #2A3B57",
"'  c #2B374C",
"]  c #263D62",
"[  c #2C405E",
"{  c #354053",
"}  c #33445C",
"|  c #3C485D",
" . c #374D45",
".. c #2B4163",
"X. c #2B456D",
"o. c #2A4669",
"O. c #334663",
"+. c #344A6B",
"@. c #3B4E6C",
"#. c #394A67",
"$. c #3C526B",
"%. c #2A4673",
"&. c #2C4974",
"*. c #2B4B7A",
"=. c #334D74",
"-. c #324E7A",
";. c #384E73",
":. c #3C5173",
">. c #36517A",
",. c #395378",
"<. c #434343",
"1. c #4D4C4C",
"2. c #474849",
"3. c #564D49",
"4. c #5C514A",
"5. c #595047",
"6. c #464D59",
"7. c #4E5359",
"8. c #525353",
"9. c #5C5B5B",
"0. c #595757",
"q. c #65594C",
"w. c #675A51",
"e. c #68635D",
"r. c #425164",
"t. c #41536B",
"y. c #4B5766",
"u. c #525D66",
"i. c #425677",
"p. c #404F66",
"a. c #54646E",
"s. c #646464",
"d. c #686766",
"f. c #7B7268",
"g. c #757574",
"h. c #7D7C7B",
"j. c #767678",
"k. c #707070",
"l. c #817967",
"z. c #817973",
"x. c #729377",
"c. c #94877F",
"v. c #7A7D81",
"b. c #79818E",
"n. c #838383",
"m. c #82858A",
"M. c #878A8E",
"N. c #8B8A8B",
"B. c #9E9585",
"V. c #9E938A",
"C. c #94948C",
"Z. c #8F9299",
"A. c #979799",
"S. c #909185",
"D. c #A1988F",
"F. c #A59B91",
"G. c #ABA297",
"H. c #B8A89A",
"J. c #BBB29B",
"K. c #999BA2",
"L. c #97A1AC",
"P. c #8CB8A1",
"I. c #A7A7A8",
"U. c #B6ADA6",
"Y. c #BCB4A7",
"T. c #BCBCBC",
"R. c #B7B6B5",
"E. c #AFB0B5",
"W. c #C2AA9B",
"Q. c #C1A796",
"!. c #C7B6AB",
"~. c #D2BCAD",
"^. c #D8BEAD",
"/. c #C8BBB3",
"(. c #D2BEB1",
"). c #CEC3BA",
"_. c #DBC5B4",
"`. c #D9C6B9",
"'. c #DCD8BB",
"]. c #D2C1AF",
"[. c #E4CDBB",
"{. c #E0C6B5",
"}. c #E0D6BB",
"|. c #B9C3C9",
" X c #B2D6CC",
".X c #C3C3C3",
"XX c #CBCBCB",
"oX c #C6C9C6",
"OX c #DBCDC2",
"+X c #DFD3C9",
"@X c #DCDCDC",
"#X c #D4D6D5",
"$X c #CAD4CA",
"%X c #E2CDC1",
"&X c #E7D2C4",
"*X c #EDD4C3",
"=X c #E8D9CB",
"-X c #F3DCCB",
";X c #F6DCCA",
":X c #EDDDD2",
">X c #F0DED2",
",X c #F6E1CE",
"<X c #FCE2CF",
"1X c #E9E7D6",
"2X c #F6E4D3",
"3X c #FDE4D2",
"4X c #FBE8D6",
"5X c #FEEBDB",
"6X c #F4E9D8",
"7X c #F8F3D7",
"8X c #DCDEE0",
"9X c #D0E4E7",
"0X c #E4E3E3",
"qX c #EDEDED",
"wX c #E8E8E7",
"eX c #F8EEE6",
"rX c #FEF2E2",
"tX c #FFFBEE",
"yX c #F7F4ED",
"uX c #EEF0F3",
"iX c #F6F6F6",
"pX c #F6F6F8",
"aX c white",
"sX c #FEFFFF",
"dX c #FEFEFD",
"fX c #FDFDFD",
"gX c #F8F8F7",
"hX c #EBF2E2",
/* pixels */
"iXiXiXiXiXiXiXiXiXiXiXiXiXiXiXiXiXiXiXiXiXiXiXiXiXiXiXiXiXiXiXiXiXiXiXiXiXiXiXiXiXiXiXiXiXiXiXiXiXiXiXiXiXiXiXiXiXiXiXiXiXiXiXiX",
"iXiXiXiXiXiXiXiXiXiXiXiXiXiXiXiXiXiXiXiXiXiXfXdXdXdXdXdXdXdXdXdXdXdXdXdXdXdXdXdXdXdXdXiXiXiXiXiXiXiXiXiXiXiXiXiXiXiXiXiXiXiXiXiX",
"iXiXiXiXiXiXiXiXiXiXiXiXiXiXiXiXiXiXiXiXiXiX0XXXXXXXXXXXXXXXXXXXXXXXXXXXXXXXXXXXXXXXXXiXiXiXiXiXiXiXiXiXiXiXiXiXiXiXiXiXiXiXiXiX",
"iXiXiXiXiXiXiXiXiXiXiXiXiXiXiXiXiXiXiXiXiXdXL.o o o o o o o o o o o o o o o o o o o r pXdXiXiXiXiXiXiXiXiXiXiXiXiXiXiXiXiXiXiXiX",
"iXiXiXiXiXiXiXiXiXiXiXiXiXiXiXiXiXiXiXiXqX7.E ` ( ( ( ( ( ( ( ( ( ) _ _ _ _ ) ( ( / ' Q K.dXiXiXiXiXiXiXiXiXiXiXiXiXiXiXiXiXiXiX",
"iXiXiXiXiXiXiXiXiXiXiXiXiXiXiXiXiXiXiXfXiX& 8 ,.*.*.*.*.-.*.*.-.>.o.Y L L L X.>.-.>.O.% j.dXiXiXiXiXiXiXiXiXiXiXiXiXiXiXiXiXiXiX",
"iXiXiXiXiXiXiXiXiXiXiXiXiXiXiXiXiXiXiXuX0Xy a -.%.*.*.*.*.*.*.%.+.K 7 & @ @ T O.&.&.O.= v.dXiXiXiXiXiXiXiXiXiXiXiXiXiXiXiXiXiXiX",
"iXiXiXiXiXiXiXiXiXiXiXiXiXiXiXiXiXiXdXM.: { X.*.*.*.*.*.*.*.*.&.7 y.9X X$X1XQ 7 -.*.O.% v.fXiXiXiXiXiXiXiXiXiXiXiXiXiXiXiXiXiXiX",
"iXiXiXiXiXiXiXiXiXiXiXiXiXiXiXiXiXiXdXv.% } -.*.*.*.-.*.*.*.*.X.o  .P.x.x.S.5 = =.-.O.% m.dXiXiXiXiXiXiXiXiXiXiXiXiXiXiXiXiXiXiX",
"iXiXiXiXiXiXiXiXiXiXiXiXiXiXiXiXiXiXdXv.% } =.&.] ) ) ) ) ) X.o.0 z  .4 4 v : w +...R o s.XXqXgXiXiXiXiXiXiXiXiXiXiXiXiXiXiXiXiX",
"iXiXiXiXiXiXiXiXiXiXiXiXiXiXiXiXiXiXdXv.o | @.@.- o o o o % J $.r.l         W #.@.p o o     @XfXiXiXiXiXiXiXiXiXiXiXiXiXiXiXiXiX",
"iXiXiXiXiXiXiXiXiXiXiXiXiXiXiXiXiXiXdXv.o % % % N.z.      o - 0 0 - o     o - 0 0 & o   d.XXqXiXiXiXiXiXiXiXiXiXiXiXiXiXiXiXiXiX",
"iXiXiXiXiXiXiXiXiXiXiXiXiXiXiXiXiXiXdXh.  1.0.4././.e.3     o o o o         o o o o     n.dXiXiXiXiXiXiXiXiXiXiXiXiXiXiXiXiXiXiX",
"iXiXiXiXiXiXiXiXiXiXiXiXiXiXiXiXiXiXdXh.. ).:X=X`.[.tXw.$ 2 X         . . .     . # ,   h.dXiXiXiXiXiXiXiXiXiXiXiXiXiXiXiXiXiXiX",
"iXiXiXiXiXiXiXiXiXiXiXiXiXiXiXiXiXiXdXh.. Y.`._._.[.,X-X&X6Xq.. . . . . . . . . . S.+X. h.dXiXiXiXiXiXiXiXiXiXiXiXiXiXiXiXiXiXiX",
"iXiXiXiXiXiXiXiXiXiXiXiXiXiXiXiXiXiXdXh.. !.%X_._.[.<X3X<X5X!.V.F.D.V.V.V.V.D.F.B.OX=X. h.dXiXiXiXiXiXiXiXiXiXiXiXiXiXiXiXiXiXiX",
"iXiXiXiXiXiXiXiXiXiXiXiXiXiXiXiXiXiXdXh.. !.%X_.[.*X3X<X<X<X5X5X+X1XrX5X5XrX=X=XrX5XOX. h.dXiXiXiXiXiXiXiXiXiXiXiXiXiXiXiXiXiXiX",
"iXiXiXiXiXiXiXiXiXiXiXiXiXiXiXiXiXiXdXh.. !.%X_.;X3X<X<X<X<X3X=Xq.B.4X-X,X2Xl.f.2X4XOX. h.dXiXiXiXiXiXiXiXiXiXiXiXiXiXiXiXiXiXiX",
"iXiXiXiXiXiXiXiXiXiXiXiXiXiXiXiXpXiXiX0XXXZ q.&X-X3X<X<X<X<X3X-Xq.B.5X,X<X5Xl.f.6XrX:X. g.dXiXiXiXiXiXiXiXiXiXiXiXiXiXiXiXiXiXiX",
"iXiXiXiXiXiXiXiXiXiXiXiXiXiXiXiXpXiXiXdXfX. A >X%X-X3X3X3X<X3X,XG.].5X3X3X3XJ.H.5XG.f.k.R.fXiXiXiXiXiXiXiXiXiXiXiXiXiXiXiXiXiXiX",
"iXiXiXiXiXiXiXiXiXiXiXiXiXiXiXiXiXiXiXiXiXc 3.).~.[.<X;X;X<X<X<X5X3X-X;X;X;X3X4XrXD . dXdXiXiXiXiXiXiXiXiXiXiXiXiXiXiXiXiXiXiXiX",
"iXiXiXiXiXiXiXiXiXiXiXiXiXiXiXiXiXiXiXiXiXfXC.. U.>X_.{.[.3X3X<X3X[.Q.W.W.W.*X2X5X5., qXiXiXiXiXiXiXiXiXiXiXiXiXiXiXiXiXiXiXiXiX",
"iXiXiXiXiXiXiXiXiXiXiXiXiXiXiXiXiXiXiXiXiXfX@XU.S 4.:X~.!.~.*X3X^._.*X*X*X*X]._.tXF   iXfXiXiXiXiXiXiXiXiXiXiXiXiXiXiXiXiXiXiXiX",
"iXiXiXiXiXiXiXiXiXiXiXiXiXiXiXiXiXiXiXiXiXiXfXdXs.1.V.H.!.H._.*XW._.5X*X;X5X~.H.G.d.0.iXiXiXiXiXiXiXiXiXiXiXiXiXiXiXiXiXiXiXiXiX",
"iXiXiXiXiXiXiXiXiXiXiXiXiXiXiXiXiXiXiXiXiXiXiXqXdX.X  j./.H.W.W.H._.<XW.!.2X_.c.. G.dXiXiXiXiXiXiXiXiXiXiXiXiXiXiXiXiXiXiXiXiXiX",
"iXiXiXiXiXiXiXiXiXiXiXiXiXiXiXiXiXiXiXiXiXiXfXdX2.e | h < # f.`./.(._.(.(.OXA A iXqXiXiXiXiXiXiXiXiXiXiXiXiXiXiXiXiXiXiXiXiXiXiX",
"iXiXiXiXiXiXiXiXiXiXiXiXiXiXiXiXpXpXiXiXiXdXXXj.T K ;.P H j ~ 9.3.4.4.3.3.0.X , n.XXdXiXiXiXiXiXiXiXiXiXiXiXiXiXiXiXiXiXiXiXiXiX",
"iXiXiXiXiXiXiXiXiXiXiXiXiXiXiXiXpXiXiXiXiX@Xb.% ..>.&.-.-.i.y o o o   $ #   O & o h.@XiXiXiXiXiXiXiXiXiXiXiXiXiXiXiXiXiXiXiXiXiX",
"iXiXiXiXiXiXiXiXiXiXiXiXiXiXiXiXiXiXiXiXqX< e :.&.&.&.*.*.@.g % r.b o 0XE.o ! { o   1 qXfXiXiXiXiXiXiXiXiXiXiXiXiXiXiXiXiXiXiXiX",
"iXiXiXiXiXiXiXiXiXiXiXiXiXiXiXiXiXiXiXdXdXe q >.&.*.>.H G ,.p % q j ! Q ! ! p 7 o o 1 qXfXiXiXiXiXiXiXiXiXiXiXiXiXiXiXiXiXiXiXiX",
"iXiXiXiXiXiXiXiXiXiXiXiXiXiXiXiXiXiXfXXXK.k K -.*.X.U a G =.I a i P t.= 8 :.H i p & t iXfXiXiXiXiXiXiXiXiXiXiXiXiXiXiXiXiXiXiXiX",
"iXiXiXiXiXiXiXiXiXiXiXiXiXiXiXiXiXiXdXj.% O.-.&.=.U 9 ^ :.$.r.t.=.=.+.8 a =.=.=.:.q < 0XiXiXiXiXiXiXiXiXiXiXiXiXiXiXiXiXiXiXiXiX",
"iXiXiXiXiXiXiXiXiXiXiXiXiXiXiXiXiXiXdXm.% ..*.&.i q @...u.#X'.oX$.X.+.7 i =.&.&.=.p o 2 N.dXiXiXiXiXiXiXiXiXiXiXiXiXiXiXiXiXiXiX",
"iXiXiXiXiXiXiXiXiXiXiXiXiXiXiXiXgXwXk.6.L X.*.=.= o j ^ a.hX7X1X$.%.+.7 i =.&.*.=.p o   h.dXiXiXiXiXiXiXiXiXiXiXiXiXiXiXiXiXiXiX",
"iXiXiXiXiXiXiXiXiXiXiXiXiXiXiXiXfX8Xo w ,.&.o.` Q n % k y.|.oX|.,.%.+.7 i =.*.*.=.p o   h.dXiXiXiXiXiXiXiXiXiXiXiXiXiXiXiXiXiXiX",
"iXiXiXiXiXiXiXiXiXiXiXiXiXiXiXiXfX8X& j -.*.P = #XoXo d T } } } &.&.+.7 i =.*.*.=.p o   h.fXiXiXiXiXiXiXiXiXiXiXiXiXiXiXiXiXiXiX",
"iXiXiXiXiXiXiXiXiXiXiXiXiXiXiXiXdXuXo s =.>.J o |.iXoX .- R ..=.*.&.+.7 i =.*.*.>.p o o n.dXiXiXiXiXiXiXiXiXiXiXiXiXiXiXiXiXiXiX",
"iXiXiXiXiXiXiXiXiXiXiXiXiXiXiXfXT.m.e J =.P { d.#XdXdX8.o J ] *.&.&.+.7 i =.*.&...q % u 0.A.qXfXiXiXiXiXiXiXiXiXiXiXiXiXiXiXiXiX",
"iXiXiXiXiXiXiXiXiXiXiXiXiXiXiXdX8.o T _ #.= u.dXpXqXwX2.o b _ &.%.X.O.7 i +.X...J - = 6.r o 8XdXiXiXiXiXiXiXiXiXiXiXiXiXiXiXiXiX",
"iXiXiXiXiXiXiXiXiXiXiXiXiXiXiXdXe.o E R E o 0.fXfXT.+ c n o p / U ^ T = 0 R ^ J o o = E r O 8XdXiXiXiXiXiXiXiXiXiXiXiXiXiXiXiXiX",
"iXiXiXiXiXiXiXiXiXiXiXiXiXiXiXdXs.  & % & o 0.dXdX.X  V 8.~ t % ; ; ; o o > ; : v * o > o o @XfXiXiXiXiXiXiXiXiXiXiXiXiXiXiXiXiX",
"iXiXiXiXiXiXiXiXiXiXiXiXiXiXiXdX9.  B B B   0.dXXXN.* 2.s.s.2.M * * + * * * & < 2.< o + + , +XtXiXiXiXiXiXiXiXiXiXiXiXiXiXiXiXiX",
"iXiXiXiXiXiXiXiXiXiXiXiXiXiXiXdX9.X 6XeX6X# 8.fXv o m 6.s.3.J.6X<.~ ~ ~ Q ! ! ! #.w o M M B }.7XyXiXiXiXiXiXiXiXiXiXiXiXiXiXiXiX",
"iXiXiXiXiXiXiXiXiXiXiXiXiXiXiXdX1.  eXrXeX. 1.dXm o J p.a.8.Y.7X7.k & ! | } } O.@.p o M c 6 '.7XyXiXiXiXiXiXiXiXiXiXiXiXiXiXiXiX",
"iXiXiXiXiXiXiXiXiXiXiXiXiXiXiXfXI.d.z.g.g.k.j.M.b p ) =.i.@.b.L.t.K = _ =.&.=.&.:.p o , 1.C.1XrXiXiXiXiXiXiXiXiXiXiXiXiXiXiXiXiX",
"iXiXiXiXiXiXiXiXiXiXiXiXiXiXiXiXdXyX, X # fXI.o h ) =.*.&.&...] =.K = [ =.&.X...O.w o 2 C.fXyXyXiXiXiXiXiXiXiXiXiXiXiXiXiXiXiXiX",
"iXiXiXiXiXiXiXiXiXiXiXiXiXiXiXiXiXiXyXyXqXdXI.o k / &.*.*.*.*.=.,.K = _ =.,.q o o o 1 qXiXiXiXiXiXiXiXiXiXiXiXiXiXiXiXiXiXiXiXiX",
"iXiXiXiXiXiXiXiXiXiXiXiXiXiXiXiXiXiXiXfXyXd.M o & p >.*.*.*.*.%.a 7 = } _ p n M M + 2 iXfXiXiXiXiXiXiXiXiXiXiXiXiXiXiXiXiXiXiXiX",
"iXiXiXiXiXiXiXiXiXiXiXiXiXiXiXiXiXiXiXiXqX+   2 , r ^ o.*.*.*.X.% o % } T % v M N + 2 qXfXiXiXiXiXiXiXiXiXiXiXiXiXiXiXiXiXiXiXiX",
"iXiXiXiXiXiXiXiXiXiXiXiXiXiXiXiXiXiXiXiXqX1 , 1.2.C % U -.&.=.O.& o % } R % o       1 qXfXiXiXiXiXiXiXiXiXiXiXiXiXiXiXiXiXiXiXiX",
"iXiXiXiXiXiXiXiXiXiXiXiXiXiXiXiXiXiXiXdXdX2     . o % R =.,.p o #Xv.% } R % n A S # 2 iXfXiXiXiXiXiXiXiXiXiXiXiXiXiXiXiXiXiXiXiX",
"iXiXiXiXiXiXiXiXiXiXiXiXiXiXiXiXiXiXfXT.g.c x x x < % R +.K r.m.dXZ.% } [ j d x v + 2 qXfXiXiXiXiXiXiXiXiXiXiXiXiXiXiXiXiXiXiXiX",
"iXiXiXiXiXiXiXiXiXiXiXiXiXiXiXiXiXiXdXg.  N A V S m 7 ( O.% Z.dXdXM.% } =.>.q % o o 1 qXgXiXiXiXiXiXiXiXiXiXiXiXiXiXiXiXiXiXiXiX",
"iXiXiXiXiXiXiXiXiXiXiXiXiXiXiXiXiXiXfXh.    o o o > #.@.} o b.fXdXM.% } =.&.^ b W & 1 qXiXiXiXiXiXiXiXiXiXiXiXiXiXiXiXiXiXiXiXiX",
"iXiXiXiXiXiXiXiXiXiXiXiXiXiXiXiXiXiXdXM.o d h h h J :.f b E.@XiXdXM.o T ) ) y & * o 2 dXdXiXiXiXiXiXiXiXiXiXiXiXiXiXiXiXiXiXiXiX",
"iXiXiXiXiXiXiXiXiXiXiXiXiXiXiXiXfXqXI.8.o u h g g k O.- u dXdXiXdXM.o u s y o o , , v A.XXfXiXiXiXiXiXiXiXiXiXiXiXiXiXiXiXiXiXiX",
"iXiXiXiXiXiXiXiXiXiXiXiXiXiXiXiXdX@X      o o o o & m ; c iXiXiXdXN.o o o o o * S V V   h.dXiXiXiXiXiXiXiXiXiXiXiXiXiXiXiXiXiXiX",
"iXiXiXiXiXiXiXiXiXiXiXiXiXiXiXiXdX@X+ 1 V M M M V n O A.qXiXiXiXdXn.  M V V V V <.<.V   j.dXiXiXiXiXiXiXiXiXiXiXiXiXiXiXiXiXiXiX",
"iXiXiXiXiXiXiXiXiXiXiXiXiXiXiXiXfX@X  2 <.V S V <.M   I.dXiXiXiXfXoXN.v , , , , , , x n..XfXiXiXiXiXiXiXiXiXiXiXiXiXiXiXiXiXiXiX",
"iXiXiXiXiXiXiXiXiXiXiXiXiXiXiXiXfX1XM c M M M M M M M R.dXiXiXiXiXdXdX1.c c c c c c <.dXdXiXiXiXiXiXiXiXiXiXiXiXiXiXiXiXiXiXiXiX",
"iXiXiXiXiXiXiXiXiXiXiXiXiXiXiXiXiXiXdXh.          V dXiXiXiXiXiXiXiXiXfXfXfXfXfXfXfXfXiXiXiXiXiXiXiXiXiXiXiXiXiXiXiXiXiXiXiXiXiX",
"iXiXiXiXiXiXiXiXiXiXiXiXiXiXiXiXiXiXgX@XT.T.T.T.T.XXfXiXiXiXiXiXiXiXiXiXiXiXiXiXiXiXiXiXiXiXiXiXiXiXiXiXiXiXiXiXiXiXiXiXiXiXiXiX",
"iXiXiXiXiXiXiXiXiXiXiXiXiXiXiXiXiXiXiXdXdXdXdXdXdXdXiXiXiXiXiXiXiXiXiXiXiXiXiXiXiXiXiXiXiXiXpXpXiXiXiXiXiXiXiXiXiXiXiXiXiXiXiXiX",
"iXiXiXiXiXiXiXiXiXiXiXiXiXiXiXiXiXiXiXiXiXiXiXiXiXiXiXiXiXiXiXiXiXiXiXiXiXiXiXiXiXiXiXiXiXiXpXpXiXiXiXiXiXiXiXiXiXiXiXiXiXiXiXiX"
};
