/* XPM */
static char *Screenshot_from_2023_12_28_20_11_051703790698[] = {
/* columns rows colors chars-per-pixel */
"64 64 245 2 ",
"   c #020202",
".  c #0D0403",
"X  c #0B0909",
"o  c #150806",
"O  c #161309",
"+  c #0E0D11",
"@  c #150D15",
"#  c #0D1417",
"$  c #131415",
"%  c #14151B",
"&  c #151A1B",
"*  c #1A1C1D",
"=  c #191817",
"-  c #0A100C",
";  c #260903",
":  c #2A1409",
">  c #361608",
",  c #261B19",
"<  c #361916",
"1  c #350A09",
"2  c #1D211C",
"3  c #25221D",
"4  c #3E2612",
"5  c #1D1E22",
"6  c #151721",
"7  c #221E24",
"8  c #251E26",
"9  c #1E2223",
"0  c #1D2827",
"q  c #222324",
"w  c #2C2B2B",
"e  c #272627",
"r  c #362928",
"t  c #2C2D32",
"y  c #322E33",
"u  c #2C3437",
"i  c #333235",
"p  c #353539",
"a  c #3B3B3D",
"s  c #383739",
"d  c #30332B",
"f  c #471705",
"g  c #571804",
"h  c #471815",
"j  c #4A0E02",
"k  c #661702",
"l  c #771903",
"z  c #77150B",
"x  c #53240A",
"c  c #572914",
"v  c #4D2511",
"b  c #782308",
"n  c #6A2814",
"m  c #443C3A",
"M  c #47332B",
"N  c #6E2829",
"B  c #6E2727",
"V  c #732828",
"C  c #3B433D",
"Z  c #734E18",
"A  c #785418",
"S  c #6F4D14",
"D  c #45423C",
"F  c #3D3C41",
"G  c #363D43",
"H  c #413E46",
"J  c #3D4546",
"K  c #434245",
"L  c #45454A",
"P  c #4A4A4D",
"I  c #484747",
"U  c #4D4D52",
"Y  c #474754",
"T  c #534C54",
"R  c #575758",
"E  c #4F5050",
"W  c #655C56",
"Q  c #625C64",
"!  c #676667",
"~  c #6C7576",
"^  c #737575",
"/  c #73767B",
"(  c #747A7D",
")  c #7B7B7C",
"_  c #787776",
"`  c #6E6E70",
"'  c #5D6161",
"]  c #841801",
"[  c #820F00",
"{  c #8C2301",
"}  c #892708",
"|  c #972905",
" . c #9B360A",
".. c #932F12",
"X. c #A42C02",
"o. c #AB2D01",
"O. c #A82B08",
"+. c #A83505",
"@. c #B53804",
"#. c #A73816",
"$. c #B43D19",
"%. c #AF2905",
"&. c #8D3534",
"*. c #AB3A22",
"=. c #C43E01",
"-. c #825A1A",
";. c #825D0F",
":. c #BB4406",
">. c #AA491C",
",. c #B84618",
"<. c #B14A14",
"1. c #894738",
"2. c #904E2F",
"3. c #A94C27",
"4. c #B54A23",
"5. c #B64E31",
"6. c #866224",
"7. c #C44503",
"8. c #C54905",
"9. c #CA4A05",
"0. c #C5450B",
"q. c #C54B0B",
"w. c #CA4C0B",
"e. c #CA4508",
"r. c #D34D0D",
"t. c #CC510D",
"y. c #C85109",
"u. c #D4540D",
"i. c #CB4C12",
"p. c #C64C15",
"a. c #D34E16",
"s. c #CD5212",
"d. c #CB541A",
"f. c #D25414",
"g. c #D3531A",
"h. c #D55A1B",
"j. c #DA5B1C",
"k. c #D75717",
"l. c #E05A1A",
"z. c #D8631C",
"x. c #CB631C",
"c. c #CB5926",
"v. c #D45B23",
"b. c #DC5D23",
"n. c #D75C29",
"m. c #CC5431",
"M. c #E25C27",
"N. c #E95F31",
"B. c #DD6225",
"V. c #D4622C",
"C. c #DD642B",
"Z. c #DA6624",
"A. c #DB6834",
"S. c #D16A35",
"D. c #E26325",
"F. c #E3652B",
"G. c #E9652C",
"H. c #E56A2D",
"J. c #E9682A",
"K. c #E46632",
"L. c #E46A32",
"P. c #EA6A33",
"I. c #E86937",
"U. c #E8713A",
"Y. c #F26B30",
"T. c #E2651D",
"R. c #8E4F45",
"E. c #927D76",
"W. c #C54443",
"Q. c #CA4344",
"!. c #CC4349",
"~. c #D0454C",
"^. c #D97445",
"/. c #E97A47",
"(. c #E67650",
"). c #C63F45",
"_. c #7B827B",
"`. c #EC9325",
"'. c #F6962C",
"]. c #F89833",
"[. c #EE8E27",
"{. c #EA8B21",
"}. c #8C847C",
"|. c #A58A79",
" X c #F0A178",
".X c #7B7C82",
"XX c #777A83",
"oX c #827D81",
"OX c #7D8384",
"+X c #7B8893",
"@X c #83858A",
"#X c #878989",
"$X c #8B8D93",
"%X c #8C9296",
"&X c #939494",
"*X c #939699",
"=X c #9B9B9C",
"-X c #979999",
";X c #928C8D",
":X c #97A29C",
">X c #9A9DA2",
",X c #9CA2A4",
"<X c #9BB1B7",
"1X c #A3A4A4",
"2X c #A7A9AA",
"3X c #ACADB1",
"4X c #B3B4B3",
"5X c #B9B9B9",
"6X c #AEB1B0",
"7X c #A29C9F",
"8X c #EFB295",
"9X c #EDBBA3",
"0X c #C9B2A5",
"qX c #BAC4BC",
"wX c #C3C4BE",
"eX c #F6C3AA",
"rX c #F7CAB5",
"tX c #F4D3BC",
"yX c #ECCFB9",
"uX c #B8BDC3",
"iX c #B8C3C5",
"pX c #C4C4C5",
"aX c #C9C8C9",
"sX c #D8D8D8",
"dX c #D0CDCF",
"fX c #EBD6C9",
"gX c #F4D9C9",
"hX c #EDDDD6",
"jX c #EED6CD",
"kX c #F4E2D9",
"lX c #EAE4D9",
"zX c #DBDEE2",
"xX c #DEE3E4",
"cX c #E5E9EB",
"vX c #ECEAEB",
"bX c #E7E6E7",
"nX c #F5EAE7",
"mX c #F7F3EC",
"MX c #EAEDF2",
"NX c #E6E7F3",
"BX c #EEF3F4",
"VX c #F5F5F7",
"CX c #EDF1EC",
"ZX c #DDE0DE",
"AX c #C0BFC4",
/* pixels */
"w L H L y F Y H I t L J L s F K H J p s L :XVXAXR v { o.%.c.K.G.G.L.p.@.o.| f T 5XcX6Xs 2 # 9 9 9 % & 0 = O W f - 2 q $ 9 9 * % ",
"y F U p y p L L w i p U F y t F T s 3 2 1XVXpX' 1 n | %.0.C.F.b.F.F.w.%.@...V > R pXVX3X= O O 2 & $ # 5 q $ O . & 3 % $ $ q * $ ",
"F U p T a K F H L p E p U F H U J U * =XVXaX! @ j z ] O.0.0.q.i.7.q.w.0.%.l l g , Q iXBX1X= 0 & 3 * $ * & e % 9 9 * 9 $ q * e * ",
"P s t F L L p i K I F y s L H p 0 t ;XvXdX~ r n | | <.d.v.j.j.7.h.h.k.j.v.,.| | b < ~ aXnX&X9 - 5 5 q * # & 0 & $ $ * e * $ $ 5 ",
"L p p F L L p y L L F i p I P p e ! kXsX_.r l o.o.:.b.L.U.G.j.9.D.P.P.H.D.C.@.o.%.l M ( sXnX` * # 5 9 * O 2 q * $ $ 7 q * $ * 5 ",
"F U G T i L H K P p E s P F s F R bXvX%Xe g | { $.n.D.C.n.b.b.q.M.b.b.C.D.h.=.@.O.| g , +XbXmXR e & * 3 * q % 7 q * q $ 9 5 e & ",
"L p U p t p H U t t s E K w * R NXMX#Xi f k l } 7.7.7.w.8.8.q.e.0.i.q.7.e.0.e.@.} z l h e #XbXNXR   $ = e % % $ * q $ # $ q * $ ",
"p y s U p L K K L i P a L w E dXbX*Xm g | | +.m.h.b.N.e.s.z.b.M.M.h.y.t.b.M.b.Z.c.+.| { n r *XbXsXR # 0 & 9 $ 2 9 q 5 % q 5 * * ",
"a i L K K P p i L m I u t R qXvX2XI g | %.#.V.G.P.P. X0X8X8X8X9X9X8X8X8XeX9X8XY.P.p.+.@.| g m 1XBXiX' % % = 3 9 $ % * 5 5 $ & q ",
"H F P t U F p i J E p q s 2XmX6XJ < b ..O.w.j.b.B.n.tXhXaXaXqXaXBXdXpXAXwXdXvX^.j.u.@.| ..} > L 2XnX5Xs + % w 6 $ $ q e 9 + $ q ",
"K U p t y U a L U u U r qXBXwXT : k ] ] @.p.e.w.7.s.rX#Xr s d I sX! r i r W jXV.9.7.7.#.] [ k > P 5XBXqXe e # 9 q & q $ q * q * ",
"L K P y Y F P L w r 7 6XMXiXR h | | +.,.V.C.L.g.q.Z.tX_.e r 3 I sXW e r q R kX/.F.C.C.G.d.| X.{ h P uXmX5Xq $ O 5 q & $ % q * $ ",
"s i F E a i s L a w -XvXiX! v b %.+.p.C.H.U.C.G.i.U.gX>X' R R ` hX#XR R R OXlX/.Y.K.H.F.D.:.X.%.{ v ! 5XCX7X* = 9 q & % q * 5 * ",
"p w K I K p s s F ( MXsX~ q g { | @.g.M.h.f.j.k.=.k.rXdX3X3X6X5XBXaX6X3X6XiXlX^.n.k.j.b.a.7.,.| { g 8 ! dXBX@Xu $ % 7 % q $ q 9 ",
"L F U i U a F F ! VXzX.Xr j l l { p.e.w.i.7.q.w.y.,.yXVXNXNXcXNXVXvXcXNXcXvXnXc.0.7.7.e.a.9.:.{ l z g r ^ sXVX` * + q w O # + * ",
"K E i w i P d ! vXbX}.3 k X.o.,.C.C.H.z.q.h.F.C.L.I.tX4X_.@XOX%XcX1X@X@X@X:XkX/.D.i.g.F.B.C.A.D.$.X.O.z , _.zXmX^ # q & e % q 5 ",
"Y a D i P e ` sXxX%Xr n O.O.$.v.P.G.L.P.d.g.H.H.J.U.gX4XXXXX~ $XcX-XXX.X~ *XkX(.G.f.g.H.L.P.L.G.w.+.%.o.b y @XZXZX^ + @ = 2 2 % ",
"G i L K s ! aXxX*Xi > l { X.w.j.f.h.f.f.9.9.f.h.f.n.yX3X~ XX( OXbX=X/ .X~ *XnXS.s.9.q.h.f.f.k.f.e.=.| { z h p %XZXdX! + q 2 2 % ",
"p y G H D aXnX2XI f l ] } :.q.0.w.7.9.s.w.w.w.s.e.d.yXaX*X7X1X3XcX4X=X,X:X4XkXV.w.s.w.t.9.7.t.w.f.r.:.} ] z f D ,XnXwXI 5 % * q ",
"m s Y y pXBX4XD j ..o.X.m.P.B.H.b.i.B.F.G.F.K.b.e.F.tXBXNXMXbXcXVXBXvXcXBXBXnX/.F.F.F.C.b.i.b.F.F.z.A.m.+.O.| j m 2XVXsXi + * 2 ",
"K J y wXVX<XR < ..O.@.v.N.I.L.D.D.i.b.H.H.P.P.b.7.K.tX5X%X&X;X>XvX1X-X&X@X2XkX/.K.P.H.G.C.i.B.P.P.H.G.l.@.@.+...h L <XMXdXw # 2 ",
"i C 1XvXiXR : k ] { +.r.k.i.t.u.w.8.w.t.s.w.i.s.0.a.tX6X^ OX~ @XcX>X^ .X_.-XlXA.i.s.t.s.9.7.s.t.w.i.d.t.9.@.] ] k : U 5XmX6Xa - ",
"P }.MXdX! h k { { +.c.a.9.q.q.r.f.f.s.f.q.9.t.f.k.c.fX4X~ / ~ %XbX=X^ XX/ %XhXS.w.7.q.f.s.f.f.t.r.i.d.f.r.c.#.{ { k v W wXVX;Xd ",
"}.VXsX~ < b +.o.,.K.I.F.J.k.d.K.L.K.G.J.d.g.H.F.G.I.yXuX%X$X%X-XNX3X%X$X$X2XnX/.G.d.f.H.G.L.G.G.w.f.P.G.K.K.G.:.o.X.b , ` dXVX*X",
"CXsX_ = b X.X.,.F.F.L.F.G.d.d.F.F.Y.Z.C.f.f.C.P.D.A.tXVXnXvXvXmXmXnXvXnXnXMXgX(.J.a.f.F.I.Z.F.J.a.h.K.F.L.C.F.i.@.X.o.} , ` sXvX",
",X+X< f ] ] O.7.w.s.t.w.f.8.7.w.q.w.t.r.9.8.y.9.r.i.3.R.R.R.R.1.R.R.R.2.R.R.2.d.9.7.9.r.r.y.f.7.7.7.s.t.w.w.t.8.7.+.] l j r ( ,X",
"G M g b { ..4.u.f.s.8.t.k.f.f.f.h.:.h.k.v.c.g.f.7.d.4.*.$.#.#.| #.#.*.#. .>.#.8.M.d.g.j.u.7.g.v.k.f.h.t.8.s.g.f.f.,.#.] { g r K ",
"o g  .+.$.V.I.H.H.B.p.B.H.K.P.K.b. .4.>.3.3.3.>. .>.3.3.>.>.>. .>.3.3.3.>.>. .3.3.3.3.3.>. .3.C.P.K.H.b.w.F.F.I.H.I.A.+.X.o.k o ",
"h O.+.@.h.D.G.F.H.b.i.b.F.F.G.F.5.:   o - o X + . + X o O X X + . @ @ o . O o X X o o X O   : 3.K.G.F.j.w.D.M.K.B.L.k.=.+.o.| h ",
"1 [ l +.9.q.w.9.q.9.7.9.t.q.w.w.<.o 0 J p q d Y 8 t L p 9 u P 0 q J u 0 u C t e L d q u J 0 . +.w.e.r.q.:.9.w.w.r.9.w.=.:.] l j ",
"f +.4.B.f.j.r.w.h.h.h.h.h.w.w.k.:.O F K K P I H I Y m m U L m P I I D I I K P U K I I L K G O ,.r.w.h.h.h.h.k.w.i.g.B.h.Z.,...j ",
"n z.H.J.L.P.a.d.P.H.P.G.G.f.g.P.5.O K m Y U J D I U K I Y J K I U J L T Y G P L K J P L D K = 3.a.k.P.K.P.P.G.f.c.Y.D.H.H.J.x.n ",
"Z '.D.D.D.M.f.s.C.b.F.F.C.s.s.D.c.o y Y D d H P i G D D t K P p s L I y m P s p P F d D Y i # 5.y.f.Z.B.F.D.D.w.t.D.D.M.D.Z.'.6.",
"A `.t.:.w.i.=.0.8.t.9.7.8.8.8.q.+.O H F I R Y F R T C I R L C E E K K R P s U R F P R D H I O +.y.8.y.q.0.7.q.7.q.9.w.q.8.y.{.-.",
"S ].j.0.v.b.Z.B.M.b.w.g.M.M.M.M.<.O p Y L s H U a H P L G F I a J P K p L U F F P F m K P u X <.M.M.D.k.i.v.M.M.Z.B.d.q.v.v.'.-.",
"S ].F.0.N.Y.G.G.H.b.q.B.U.J.L.P.c.O # u e O q w $ = e q @ 5 r = + w 7 = 9 0 , $ w 9 O 7 y 6 X 4.J.H.H.h.w.F.L.P.K.G.M.e.G.I.].-.",
"A `.z.8.h.b.F.M.j.j.q.h.b.b.b.b.4.; ; o . .     ; o q e , = , q e , 7 8 9 2 ; ;         o ; 1 *.G.b.b.h.8.j.b.b.F.j.h.w.g.v.'.;.",
"S `.u.9.7.8.:.7.9.w.e.w.e.7.7.w.,.b l k ;     o g k E.#X` ~ _.` ^ ^ ~ ! @X;Xn k o     ; k k l @.7.7.t.9.7.w.e.7.7.8.:.7.w.a.{.-.",
"Z ].M.D.M.N.d.g.M.b.b.M.D.f.f.T.c.O.| o.>     ; | ..|.#X}.:X=X=X=X=X` ! #X|.*.] ;     1 X.X.X.4.i.f.B.b.b.C.b.i.g.D.n.K.M.M.[.6.",
"S ].G.^.8X9X9X9XrXeXeXeXeX9X9XeX8X#.o.%.f # $ 1 o.O.|.#X;X:X#X;X;X#X' Q #X|.#.%.1 + - 1 o.%.O.8X9X9XeXrXeXeXeX9X9XrXeX8XU.J.'.-.",
"A `.z.V.gXaX4X5X4XwXmXwX5X4X4XdXfX..{ | 1 % 7 ; } | |.@X;X&X_ ( _ ( R W #X|...{ ; 7 6 1 { } ..yXdX4X4X4XwXnXwX4X5X4XaXkXA.h.'.A ",
"Z `.y.d.tX^ e d w E sXE 3 d w ` sXb [ [ 1 % 5 o k [ E.$X#X=X_ ^ _ ^ R ! ;X;Xl l ; 6 $ ; [ z } fX^ d d w I sXR w w e ! fXV.t.{.-.",
"S ].z.p.tX` e d w E sXE d d w ! sX} { | f = q o k ..;X$X#X-X_ _ _ ^ Q ' $X;Xz } : q = > ..z ..fX_ 3 d w P sXR e y e ! gXA.D.].-.",
"Z ].Z.h.gX;X' ' Q _.vX) R ! R &XdX} O.O.j = * o k O.|.@X#X-X_ _ _ ^ ! R #X}.b ..; 5 O > | ] ..fX:XW ! W ^ bXoX' ! R #XkX/.J.].-.",
"A `.s.d.tXaXqXqX5XaXBXpX4XuX5XdXhX .@.@.f $ 0 ; | @.0X3X1X5X&X#X#X#X^ ^ 1X0X .X.; q 6 > @.| ,.fXdX5X5X5XpXBXpXuXuX5XaXjXL.g.[.-.",
"S `.s.v.gXcXzXxXsXbXVXbXcXzXzXcXkXd.w.w.g = 5 : ,.a.rXaXaXZX2X2X2X1X#X#XpXtXc.i.> 5 6 f i.8.v.gXBXxXzXxXcXBXxXzXzXsXbXnXc.f.'.A ",
"Z ].B.I.gX2XXXOXoX*XcX*XXXOX.X2XkX^.G.F.n 6 5 < V.P.tXaXaXZX1X,X1X:X#X#XpXgXU.B.< 7 % x C.C.U.gX3XOXOX.X$XcX*XOX@X.X1XkXU.B.].-.",
"Z ].H.U.hX,XXXXX/ &XcX*X/ XX/ 1XgX/.D.A.c & * > V.U.tXaX:X&X}._.}._..X#XaXgX^.F.< * & v F.L.U.gX2X^ OXXX#XbX*X( XX( 1XhX/.J.].-.",
"Z `.f.v.gX7X( ( / %XcX%X/ XX~ ,XhXZ.f.i.c $ 5 : p.d.yXdX-X;X&X;X;X&X;X=XaXgXV.p.> 5 % x i.k.v.gX,X/ XX/ $XxX*X~ XX^ 1XhXV.y.'.A ",
"A `.f.d.gXpX1X2X2X4XBX5X,X3X,XaXfXd.t.f.x $ 5 : :.h.yXdX5XaXpXpXaXaX1X-XaXfXp.:.> 5 % f i.7.c.gXdX,X3X,X4XVX4X2X3X1X5XhXV.t.[.6.",
"A ].z.p.fXBXcXNXbXvXVXcXvXMXNXNXfXd.D.G.c % 7 : 0.G.gXAXaXVXvXVXBXvX1X#XpXfXs.Z.> 5 % v b.8.L.gXBXvXMXcXbXVXvXbXNXcXMXkXU.J.'.-.",
"S '.D.c.yX4X+X@X@X,XcX2X@XOX@X6XfXc.D.J.c * 5 : :.M.gXdXdXbX6X2X6X4X#X@XdXgXs.v.< 5 % v D.q.L.gX4X@X@X@X1XxX,X#X+X#X3XkX/.G.'.-.",
"A `.y.d.fX1X( XXXX%XMX%X( OX~ ,XfXp.w.i.x % * : @.f.yXdXaXzX2X2X1X2X}.#XaXfXp.p.> 5 % f p.@.b.fX2X( .X.X#XNX*XXX.X^ -XhXc.q.[.-.",
"A `.h.B.gX1X/ / ^ %XbX$X( XXXX>XkXV.s.g.x % 5 < p.h.yXdX6X4X$X;X&X#X_.#XpXgXv.p.> 5 # v i.f.C.gX2XXX/ .X@XcX*X` XX( =XkXV.s.'.-.",
"A '.Z.U.gX4X*X7X=X2XMX3X*X*X%XuXkXU.J.J.c % 5 , V.U.gXpX&X#XE.@X@X@X}.;XuXkXU.A.> 5 6 v G.J.P.gXuX&X=X*X2XvX3X-X>X-X4XkX/.b.].-.",
"S '.H.U.fXmXbXvXbXvXnXvXvXvXvXvXjXU.F.P.c $ 8 : c.A.yXuX=X&X*X=X-X=X&X:XuXfXV.n.< 5 6 v D.D.U.fXvXvXnXvXvXvXnXvXbXvXbXjXU.F.'.-.",
"S '.y.<.2.&.1.&.1.1.1.1.1.1.1.Z 2.p.=.i.g @ e X < < r r e q e 8 3 e 8 q r r < < . 8 @ f q.i.p.2.1.&.1.1.1.1.1.1.1.&.R.*.4.y.{.6.",
"A '.u.7.$.4.>.,.,.$.X.$.4.$.m.*.<.=.g.b.c & 5 o B V V V B B V V B V V B N V V n o 5 & v f.e.g.,.4.$.,.#.X.$.4.$.4.,.#.+.s.j.'.-.",
"A `.D.t.M.G.L.H.G.B.0.F.L.L.I.I.F.9.Z.Y.c # 9 < ).).).!.!.!.~.).Q.~.~.!.).).Q.Q.< 5 & h j.q.T.L.L.P.H.b.w.D.H.L.K.Y.h.8.G.G.].;.",
"Z ].D.9.l.G.D.F.B.b.i.b.D.G.M.M.Z.:.z.D.n $ % 1 ).*.m.Q.Q.Q.).m.m.).).Q.W.).).m.< % 6 c D.q.z.C.H.F.B.b.i.b.D.J.C.F.z.9.M.b.'.;.",
"A `.y.:.7.e.9.q.9.7.7.7.w.9.7.9.0.r.0.9.x   o : ).W.Q.!.!.).Q.W.m.W.).).Q.!.W.5.: .   f 0.=.i.=.7.7.9.9.7.e.e.7.q.e.0.7.i.p.[.;.",
"S ].v.z.z.j.t.y.j.h.D.h.b.i.q.j.h.z.v.g.c 1 &.&.).).!.Q.).).W.!.).!.!.!.).).).~.&.&.h g h.D.z.Z.w.r.b.j.j.b.h.w.u.l.j.h.j.j.'.-.",
"Z ].P.U.A.K.k.u.I.K.I.K.L.g.g.L.Y.G.I.I.n < N V N N N V B V V V N N V N B B V V B V < v K.Y.F.K.a.h.P.I.I.P.K.g.f.J.L.H.L.L.].-.",
"S {.C.4.3.3.<.,.n.V.Z.c.V.,.p.v.m.V.S.c.v   . o . . . . o X X X X . . . . X . X o o   4 n.m.c.S.:.,.V.n.n.V.c.p.4.V.V.c.V.m.{.Z "
};
